<svg width="664" height="411" viewBox="0 0 664 411" fill="none" xmlns="http://www.w3.org/2000/svg">
<mask id="path-1-inside-1_122_136" fill="white">
<path d="M0 5.99999C0 2.68629 2.68629 0 6 0H310C313.314 0 316 2.68629 316 6V404.818C316 408.132 313.314 410.818 310 410.818H6.00001C2.6863 410.818 0 408.132 0 404.818V5.99999Z"/>
</mask>
<path d="M0 5.99999C0 2.68629 2.68629 0 6 0H310C313.314 0 316 2.68629 316 6V404.818C316 408.132 313.314 410.818 310 410.818H6.00001C2.6863 410.818 0 408.132 0 404.818V5.99999Z" fill="#202024"/>
<path d="M105.812 60.3633V63H94.1406V60.75L99.6602 54.832C100.215 54.2148 100.652 53.6719 100.973 53.2031C101.293 52.7266 101.523 52.3008 101.664 51.9258C101.812 51.543 101.887 51.1797 101.887 50.8359C101.887 50.3203 101.801 49.8789 101.629 49.5117C101.457 49.1367 101.203 48.8477 100.867 48.6445C100.539 48.4414 100.133 48.3398 99.6484 48.3398C99.1328 48.3398 98.6875 48.4648 98.3125 48.7148C97.9453 48.9648 97.6641 49.3125 97.4688 49.7578C97.2812 50.2031 97.1875 50.707 97.1875 51.2695H93.8008C93.8008 50.2539 94.043 49.3242 94.5273 48.4805C95.0117 47.6289 95.6953 46.9531 96.5781 46.4531C97.4609 45.9453 98.5078 45.6914 99.7188 45.6914C100.914 45.6914 101.922 45.8867 102.742 46.2773C103.57 46.6602 104.195 47.2148 104.617 47.9414C105.047 48.6602 105.262 49.5195 105.262 50.5195C105.262 51.082 105.172 51.6328 104.992 52.1719C104.812 52.7031 104.555 53.2344 104.219 53.7656C103.891 54.2891 103.492 54.8203 103.023 55.3594C102.555 55.8984 102.035 56.457 101.465 57.0352L98.5 60.3633H105.812ZM119.875 56.625V59.2734H107.582L107.418 57.2227L114.531 45.9375H117.215L114.309 50.8008L110.77 56.625H119.875ZM117.941 45.9375V63H114.566V45.9375H117.941ZM129.133 45.9375L122.875 64.4648H120.367L126.625 45.9375H129.133ZM138.836 45.9023V63H135.461V49.793L131.406 51.082V48.4219L138.473 45.9023H138.836ZM152.617 45.9023V63H149.242V49.793L145.188 51.082V48.4219L152.254 45.9023H152.617Z" fill="#F7DD43"/>
<path d="M179.296 58.5234L181.989 60.6562L180.697 61.7773L178.045 59.6445L179.296 58.5234ZM182.058 54.791V55.2627C182.058 56.0192 181.955 56.6982 181.75 57.2998C181.549 57.9014 181.26 58.4141 180.882 58.8379C180.504 59.2572 180.057 59.5785 179.542 59.8018C179.027 60.0251 178.455 60.1367 177.826 60.1367C177.202 60.1367 176.63 60.0251 176.11 59.8018C175.591 59.5785 175.142 59.2572 174.764 58.8379C174.385 58.4141 174.091 57.9014 173.882 57.2998C173.677 56.6982 173.574 56.0192 173.574 55.2627V54.791C173.574 54.0299 173.677 53.3509 173.882 52.7539C174.091 52.1523 174.383 51.6396 174.757 51.2158C175.131 50.792 175.577 50.4684 176.097 50.2451C176.616 50.0218 177.188 49.9102 177.812 49.9102C178.441 49.9102 179.013 50.0218 179.528 50.2451C180.048 50.4684 180.497 50.792 180.875 51.2158C181.253 51.6396 181.545 52.1523 181.75 52.7539C181.955 53.3509 182.058 54.0299 182.058 54.791ZM179.986 55.2627V54.7773C179.986 54.2487 179.936 53.7839 179.836 53.3828C179.74 52.9818 179.599 52.6445 179.412 52.3711C179.23 52.0977 179.004 51.8926 178.735 51.7559C178.466 51.6146 178.159 51.5439 177.812 51.5439C177.466 51.5439 177.159 51.6146 176.89 51.7559C176.621 51.8926 176.395 52.0977 176.213 52.3711C176.031 52.6445 175.892 52.9818 175.796 53.3828C175.7 53.7839 175.652 54.2487 175.652 54.7773V55.2627C175.652 55.7868 175.7 56.2516 175.796 56.6572C175.892 57.0583 176.031 57.3978 176.213 57.6758C176.4 57.9492 176.628 58.1566 176.896 58.2979C177.17 58.4391 177.48 58.5098 177.826 58.5098C178.173 58.5098 178.478 58.4391 178.742 58.2979C179.011 58.1566 179.237 57.9492 179.419 57.6758C179.606 57.3978 179.747 57.0583 179.843 56.6572C179.938 56.2516 179.986 55.7868 179.986 55.2627ZM189.037 50.0469H191.081V56.623C191.081 57.3887 190.917 58.0335 190.589 58.5576C190.265 59.0817 189.816 59.4759 189.242 59.7402C188.673 60.0046 188.016 60.1367 187.273 60.1367C186.531 60.1367 185.87 60.0046 185.291 59.7402C184.717 59.4759 184.266 59.0817 183.938 58.5576C183.614 58.0335 183.452 57.3887 183.452 56.623V50.0469H185.503V56.623C185.503 57.0697 185.574 57.4342 185.715 57.7168C185.856 57.9993 186.059 58.2067 186.323 58.3389C186.592 58.471 186.909 58.5371 187.273 58.5371C187.647 58.5371 187.964 58.471 188.224 58.3389C188.488 58.2067 188.688 57.9993 188.825 57.7168C188.966 57.4342 189.037 57.0697 189.037 56.623V50.0469ZM194.95 50.0469V60H192.906V50.0469H194.95ZM204.972 50.0469V60H202.921L198.922 53.3281V60H196.871V50.0469H198.922L202.928 56.7256V50.0469H204.972ZM211.001 50.0469V60H208.957V50.0469H211.001ZM214.063 50.0469V51.6533H205.942V50.0469H214.063ZM218.541 51.749L215.834 60H213.653L217.352 50.0469H218.739L218.541 51.749ZM220.79 60L218.076 51.749L217.857 50.0469H219.259L222.978 60H220.79ZM220.667 56.2949V57.9014H215.41V56.2949H220.667Z" fill="#E1E1E6"/>
<rect x="76.5" y="32.5" width="163" height="45" rx="5.5" stroke="#338AF3"/>
<g clip-path="url(#clip0_122_136)">
<path d="M48 181C61.8071 181 73 169.807 73 156C73 142.193 61.8071 131 48 131C34.1929 131 23 142.193 23 156C23 169.807 34.1929 181 48 181Z" fill="#D80027"/>
<path d="M61.0435 151.652H52.3479V142.957H43.6521V151.652H34.9565V160.348H43.6521V169.043H52.3479V160.348H61.0435V151.652Z" fill="#F0F0F0"/>
</g>
<path d="M130.174 153.365V158.041C130.174 159.881 129.957 161.48 129.523 162.84C129.102 164.199 128.492 165.324 127.695 166.215C126.91 167.105 125.973 167.768 124.883 168.201C123.793 168.635 122.592 168.852 121.279 168.852C120.225 168.852 119.24 168.717 118.326 168.447C117.412 168.166 116.586 167.744 115.848 167.182C115.121 166.607 114.494 165.893 113.967 165.037C113.439 164.182 113.035 163.174 112.754 162.014C112.473 160.842 112.332 159.518 112.332 158.041V153.365C112.332 151.514 112.543 149.914 112.965 148.566C113.398 147.207 114.014 146.082 114.811 145.191C115.607 144.301 116.551 143.639 117.641 143.205C118.73 142.771 119.932 142.555 121.244 142.555C122.299 142.555 123.277 142.695 124.18 142.977C125.094 143.246 125.92 143.668 126.658 144.242C127.396 144.805 128.023 145.514 128.539 146.369C129.066 147.225 129.471 148.238 129.752 149.41C130.033 150.57 130.174 151.889 130.174 153.365ZM124.25 158.762V152.609C124.25 151.789 124.203 151.074 124.109 150.465C124.027 149.855 123.898 149.34 123.723 148.918C123.559 148.496 123.354 148.156 123.107 147.898C122.861 147.629 122.58 147.436 122.264 147.318C121.959 147.189 121.619 147.125 121.244 147.125C120.775 147.125 120.354 147.225 119.979 147.424C119.615 147.611 119.305 147.916 119.047 148.338C118.789 148.76 118.59 149.322 118.449 150.025C118.32 150.729 118.256 151.59 118.256 152.609V158.762C118.256 159.594 118.297 160.32 118.379 160.941C118.473 161.551 118.602 162.072 118.766 162.506C118.941 162.928 119.152 163.273 119.398 163.543C119.645 163.801 119.926 163.988 120.242 164.105C120.559 164.223 120.904 164.281 121.279 164.281C121.736 164.281 122.146 164.188 122.51 164C122.873 163.812 123.184 163.508 123.441 163.086C123.711 162.652 123.91 162.084 124.039 161.381C124.18 160.666 124.25 159.793 124.25 158.762ZM151.074 142.906V146.07L141.512 168.5H135.254L144.834 147.477H132.617V142.906H151.074ZM154.66 165.723C154.66 164.879 154.965 164.176 155.574 163.613C156.184 163.039 156.969 162.752 157.93 162.752C158.902 162.752 159.688 163.039 160.285 163.613C160.895 164.176 161.199 164.879 161.199 165.723C161.199 166.566 160.895 167.275 160.285 167.85C159.688 168.412 158.902 168.693 157.93 168.693C156.969 168.693 156.184 168.412 155.574 167.85C154.965 167.275 154.66 166.566 154.66 165.723ZM154.66 151.695C154.66 150.852 154.965 150.148 155.574 149.586C156.184 149.012 156.969 148.725 157.93 148.725C158.902 148.725 159.688 149.012 160.285 149.586C160.895 150.148 161.199 150.852 161.199 151.695C161.199 152.539 160.895 153.248 160.285 153.822C159.688 154.385 158.902 154.666 157.93 154.666C156.969 154.666 156.184 154.385 155.574 153.822C154.965 153.248 154.66 152.539 154.66 151.695ZM182.768 153.365V158.041C182.768 159.881 182.551 161.48 182.117 162.84C181.695 164.199 181.086 165.324 180.289 166.215C179.504 167.105 178.566 167.768 177.477 168.201C176.387 168.635 175.186 168.852 173.873 168.852C172.818 168.852 171.834 168.717 170.92 168.447C170.006 168.166 169.18 167.744 168.441 167.182C167.715 166.607 167.088 165.893 166.561 165.037C166.033 164.182 165.629 163.174 165.348 162.014C165.066 160.842 164.926 159.518 164.926 158.041V153.365C164.926 151.514 165.137 149.914 165.559 148.566C165.992 147.207 166.607 146.082 167.404 145.191C168.201 144.301 169.145 143.639 170.234 143.205C171.324 142.771 172.525 142.555 173.838 142.555C174.893 142.555 175.871 142.695 176.773 142.977C177.688 143.246 178.514 143.668 179.252 144.242C179.99 144.805 180.617 145.514 181.133 146.369C181.66 147.225 182.064 148.238 182.346 149.41C182.627 150.57 182.768 151.889 182.768 153.365ZM176.844 158.762V152.609C176.844 151.789 176.797 151.074 176.703 150.465C176.621 149.855 176.492 149.34 176.316 148.918C176.152 148.496 175.947 148.156 175.701 147.898C175.455 147.629 175.174 147.436 174.857 147.318C174.553 147.189 174.213 147.125 173.838 147.125C173.369 147.125 172.947 147.225 172.572 147.424C172.209 147.611 171.898 147.916 171.641 148.338C171.383 148.76 171.184 149.322 171.043 150.025C170.914 150.729 170.85 151.59 170.85 152.609V158.762C170.85 159.594 170.891 160.32 170.973 160.941C171.066 161.551 171.195 162.072 171.359 162.506C171.535 162.928 171.746 163.273 171.992 163.543C172.238 163.801 172.52 163.988 172.836 164.105C173.152 164.223 173.498 164.281 173.873 164.281C174.33 164.281 174.74 164.188 175.104 164C175.467 163.812 175.777 163.508 176.035 163.086C176.305 162.652 176.504 162.084 176.633 161.381C176.773 160.666 176.844 159.793 176.844 158.762ZM203.65 153.365V158.041C203.65 159.881 203.434 161.48 203 162.84C202.578 164.199 201.969 165.324 201.172 166.215C200.387 167.105 199.449 167.768 198.359 168.201C197.27 168.635 196.068 168.852 194.756 168.852C193.701 168.852 192.717 168.717 191.803 168.447C190.889 168.166 190.062 167.744 189.324 167.182C188.598 166.607 187.971 165.893 187.443 165.037C186.916 164.182 186.512 163.174 186.23 162.014C185.949 160.842 185.809 159.518 185.809 158.041V153.365C185.809 151.514 186.02 149.914 186.441 148.566C186.875 147.207 187.49 146.082 188.287 145.191C189.084 144.301 190.027 143.639 191.117 143.205C192.207 142.771 193.408 142.555 194.721 142.555C195.775 142.555 196.754 142.695 197.656 142.977C198.57 143.246 199.396 143.668 200.135 144.242C200.873 144.805 201.5 145.514 202.016 146.369C202.543 147.225 202.947 148.238 203.229 149.41C203.51 150.57 203.65 151.889 203.65 153.365ZM197.727 158.762V152.609C197.727 151.789 197.68 151.074 197.586 150.465C197.504 149.855 197.375 149.34 197.199 148.918C197.035 148.496 196.83 148.156 196.584 147.898C196.338 147.629 196.057 147.436 195.74 147.318C195.436 147.189 195.096 147.125 194.721 147.125C194.252 147.125 193.83 147.225 193.455 147.424C193.092 147.611 192.781 147.916 192.523 148.338C192.266 148.76 192.066 149.322 191.926 150.025C191.797 150.729 191.732 151.59 191.732 152.609V158.762C191.732 159.594 191.773 160.32 191.855 160.941C191.949 161.551 192.078 162.072 192.242 162.506C192.418 162.928 192.629 163.273 192.875 163.543C193.121 163.801 193.402 163.988 193.719 164.105C194.035 164.223 194.381 164.281 194.756 164.281C195.213 164.281 195.623 164.188 195.986 164C196.35 163.812 196.66 163.508 196.918 163.086C197.188 162.652 197.387 162.084 197.516 161.381C197.656 160.666 197.727 159.793 197.727 158.762Z" fill="#E1E1E6"/>
<g clip-path="url(#clip1_122_136)">
<path d="M278.87 133.481C275.583 131.891 271.896 131 268 131C264.104 131 260.417 131.891 257.13 133.481L254.957 156L257.13 178.519C260.417 180.109 264.104 181 268 181C271.896 181 275.583 180.109 278.87 178.519L281.043 156L278.87 133.481Z" fill="#D80027"/>
<path d="M268 147.304L270.158 153.947H277.143L271.492 158.053L273.651 164.696L268 160.59L262.349 164.696L264.508 158.053L258.857 153.947H265.841L268 147.304Z" fill="#FFDA44"/>
<path d="M257.13 133.482C248.768 137.525 243 146.089 243 156C243 165.912 248.768 174.475 257.13 178.518V133.482Z" fill="#496E2D"/>
<path d="M278.87 133.482V178.518C287.232 174.475 293 165.911 293 156C293 146.089 287.232 137.525 278.87 133.482Z" fill="#FFDA44"/>
</g>
<line x1="23.0024" y1="204.5" x2="293.001" y2="205.409" stroke="#323238"/>
<g clip-path="url(#clip2_122_136)">
<path d="M23 254.909C23 265.658 29.7844 274.822 39.3042 278.354L41.4782 254.909L39.3042 231.464C29.7844 234.996 23 244.16 23 254.909Z" fill="#6DA544"/>
<path d="M73 254.909C73 241.102 61.807 229.909 48 229.909C44.942 229.909 42.0126 230.459 39.3042 231.464V278.354C42.0126 279.359 44.942 279.909 48 279.909C61.807 279.909 73 268.716 73 254.909Z" fill="#D80027"/>
<path d="M39.3044 263.605C44.1068 263.605 48 259.711 48 254.909C48 250.107 44.1068 246.213 39.3044 246.213C34.5019 246.213 30.6088 250.107 30.6088 254.909C30.6088 259.711 34.5019 263.605 39.3044 263.605Z" fill="#FFDA44"/>
<path d="M34.4131 250.561V255.996C34.4131 258.697 36.6029 260.887 39.3044 260.887C42.0059 260.887 44.1957 258.697 44.1957 255.996V250.561H34.4131Z" fill="#D80027"/>
<path d="M39.3044 257.626C38.4054 257.626 37.674 256.895 37.674 255.996V253.822H40.9348V255.996C40.9348 256.895 40.2033 257.626 39.3044 257.626Z" fill="#F0F0F0"/>
</g>
<path d="M125.516 241.815V267.409H119.592V248.495L113.756 250.2V245.7L124.971 241.815H125.516ZM138.682 252.134H141.564C142.303 252.134 142.906 252.005 143.375 251.747C143.855 251.477 144.213 251.102 144.447 250.622C144.682 250.13 144.799 249.55 144.799 248.882C144.799 248.366 144.688 247.891 144.465 247.458C144.254 247.024 143.926 246.679 143.48 246.421C143.035 246.151 142.467 246.016 141.775 246.016C141.307 246.016 140.85 246.116 140.404 246.315C139.959 246.503 139.59 246.772 139.297 247.124C139.016 247.475 138.875 247.903 138.875 248.407H132.934C132.934 246.954 133.332 245.712 134.129 244.681C134.938 243.638 135.998 242.841 137.311 242.29C138.635 241.727 140.059 241.446 141.582 241.446C143.398 241.446 144.992 241.727 146.363 242.29C147.734 242.841 148.801 243.661 149.562 244.751C150.336 245.829 150.723 247.165 150.723 248.759C150.723 249.638 150.518 250.464 150.107 251.237C149.697 252.011 149.123 252.69 148.385 253.276C147.646 253.862 146.779 254.325 145.783 254.665C144.799 254.993 143.721 255.157 142.549 255.157H138.682V252.134ZM138.682 256.546V253.593H142.549C143.826 253.593 144.992 253.739 146.047 254.032C147.102 254.313 148.01 254.735 148.771 255.298C149.533 255.86 150.119 256.557 150.529 257.39C150.939 258.21 151.145 259.153 151.145 260.22C151.145 261.415 150.904 262.481 150.424 263.419C149.943 264.356 149.27 265.147 148.402 265.792C147.535 266.436 146.521 266.929 145.361 267.268C144.201 267.597 142.941 267.761 141.582 267.761C140.516 267.761 139.449 267.62 138.383 267.339C137.316 267.046 136.344 266.6 135.465 266.003C134.586 265.393 133.877 264.62 133.338 263.682C132.811 262.733 132.547 261.602 132.547 260.29H138.488C138.488 260.829 138.635 261.321 138.928 261.766C139.232 262.2 139.637 262.546 140.141 262.804C140.645 263.061 141.189 263.19 141.775 263.19C142.502 263.19 143.117 263.056 143.621 262.786C144.137 262.505 144.529 262.13 144.799 261.661C145.068 261.192 145.203 260.671 145.203 260.097C145.203 259.229 145.057 258.538 144.764 258.022C144.482 257.507 144.066 257.132 143.516 256.897C142.977 256.663 142.326 256.546 141.564 256.546H138.682ZM154.66 264.632C154.66 263.788 154.965 263.085 155.574 262.522C156.184 261.948 156.969 261.661 157.93 261.661C158.902 261.661 159.688 261.948 160.285 262.522C160.895 263.085 161.199 263.788 161.199 264.632C161.199 265.475 160.895 266.184 160.285 266.759C159.688 267.321 158.902 267.602 157.93 267.602C156.969 267.602 156.184 267.321 155.574 266.759C154.965 266.184 154.66 265.475 154.66 264.632ZM154.66 250.604C154.66 249.761 154.965 249.057 155.574 248.495C156.184 247.921 156.969 247.634 157.93 247.634C158.902 247.634 159.688 247.921 160.285 248.495C160.895 249.057 161.199 249.761 161.199 250.604C161.199 251.448 160.895 252.157 160.285 252.731C159.688 253.294 158.902 253.575 157.93 253.575C156.969 253.575 156.184 253.294 155.574 252.731C154.965 252.157 154.66 251.448 154.66 250.604ZM182.768 252.274V256.95C182.768 258.79 182.551 260.39 182.117 261.749C181.695 263.108 181.086 264.233 180.289 265.124C179.504 266.015 178.566 266.677 177.477 267.11C176.387 267.544 175.186 267.761 173.873 267.761C172.818 267.761 171.834 267.626 170.92 267.356C170.006 267.075 169.18 266.653 168.441 266.091C167.715 265.516 167.088 264.802 166.561 263.946C166.033 263.091 165.629 262.083 165.348 260.923C165.066 259.751 164.926 258.427 164.926 256.95V252.274C164.926 250.423 165.137 248.823 165.559 247.475C165.992 246.116 166.607 244.991 167.404 244.1C168.201 243.21 169.145 242.548 170.234 242.114C171.324 241.681 172.525 241.464 173.838 241.464C174.893 241.464 175.871 241.604 176.773 241.886C177.688 242.155 178.514 242.577 179.252 243.151C179.99 243.714 180.617 244.423 181.133 245.278C181.66 246.134 182.064 247.147 182.346 248.319C182.627 249.479 182.768 250.798 182.768 252.274ZM176.844 257.671V251.518C176.844 250.698 176.797 249.983 176.703 249.374C176.621 248.765 176.492 248.249 176.316 247.827C176.152 247.405 175.947 247.065 175.701 246.807C175.455 246.538 175.174 246.345 174.857 246.227C174.553 246.099 174.213 246.034 173.838 246.034C173.369 246.034 172.947 246.134 172.572 246.333C172.209 246.52 171.898 246.825 171.641 247.247C171.383 247.669 171.184 248.231 171.043 248.934C170.914 249.638 170.85 250.499 170.85 251.518V257.671C170.85 258.503 170.891 259.229 170.973 259.85C171.066 260.46 171.195 260.981 171.359 261.415C171.535 261.837 171.746 262.182 171.992 262.452C172.238 262.71 172.52 262.897 172.836 263.015C173.152 263.132 173.498 263.19 173.873 263.19C174.33 263.19 174.74 263.097 175.104 262.909C175.467 262.722 175.777 262.417 176.035 261.995C176.305 261.561 176.504 260.993 176.633 260.29C176.773 259.575 176.844 258.702 176.844 257.671ZM203.65 252.274V256.95C203.65 258.79 203.434 260.39 203 261.749C202.578 263.108 201.969 264.233 201.172 265.124C200.387 266.015 199.449 266.677 198.359 267.11C197.27 267.544 196.068 267.761 194.756 267.761C193.701 267.761 192.717 267.626 191.803 267.356C190.889 267.075 190.062 266.653 189.324 266.091C188.598 265.516 187.971 264.802 187.443 263.946C186.916 263.091 186.512 262.083 186.23 260.923C185.949 259.751 185.809 258.427 185.809 256.95V252.274C185.809 250.423 186.02 248.823 186.441 247.475C186.875 246.116 187.49 244.991 188.287 244.1C189.084 243.21 190.027 242.548 191.117 242.114C192.207 241.681 193.408 241.464 194.721 241.464C195.775 241.464 196.754 241.604 197.656 241.886C198.57 242.155 199.396 242.577 200.135 243.151C200.873 243.714 201.5 244.423 202.016 245.278C202.543 246.134 202.947 247.147 203.229 248.319C203.51 249.479 203.65 250.798 203.65 252.274ZM197.727 257.671V251.518C197.727 250.698 197.68 249.983 197.586 249.374C197.504 248.765 197.375 248.249 197.199 247.827C197.035 247.405 196.83 247.065 196.584 246.807C196.338 246.538 196.057 246.345 195.74 246.227C195.436 246.099 195.096 246.034 194.721 246.034C194.252 246.034 193.83 246.134 193.455 246.333C193.092 246.52 192.781 246.825 192.523 247.247C192.266 247.669 192.066 248.231 191.926 248.934C191.797 249.638 191.732 250.499 191.732 251.518V257.671C191.732 258.503 191.773 259.229 191.855 259.85C191.949 260.46 192.078 260.981 192.242 261.415C192.418 261.837 192.629 262.182 192.875 262.452C193.121 262.71 193.402 262.897 193.719 263.015C194.035 263.132 194.381 263.19 194.756 263.19C195.213 263.19 195.623 263.097 195.986 262.909C196.35 262.722 196.66 262.417 196.918 261.995C197.188 261.561 197.387 260.993 197.516 260.29C197.656 259.575 197.727 258.702 197.727 257.671Z" fill="#E1E1E6"/>
<g clip-path="url(#clip3_122_136)">
<path d="M243 254.909C243 257.967 243.55 260.896 244.555 263.605L268 264.692L291.445 263.605C292.45 260.896 293 257.967 293 254.909C293 251.851 292.45 248.922 291.445 246.213L268 245.126L244.555 246.213C243.55 248.922 243 251.851 243 254.909V254.909Z" fill="#FFDA44"/>
<path d="M268 229.909C257.251 229.909 248.087 236.693 244.555 246.213H291.445C287.913 236.693 278.749 229.909 268 229.909V229.909Z" fill="#D80027"/>
<path d="M291.445 263.605H244.555C248.087 273.125 257.251 279.909 268 279.909C278.749 279.909 287.913 273.125 291.445 263.605Z" fill="#496E2D"/>
<path d="M268 246.213L270.158 252.856H277.143L271.492 256.962L273.651 263.605L268 259.499L262.349 263.605L264.507 256.962L258.857 252.856H265.842L268 246.213Z" fill="black"/>
</g>
<line x1="23.0024" y1="303.409" x2="293.001" y2="304.318" stroke="#323238"/>
<g clip-path="url(#clip4_122_136)">
<g clip-path="url(#clip5_122_136)">
<path d="M48 378.818C61.8071 378.818 73 367.625 73 353.818C73 340.011 61.8071 328.818 48 328.818C34.1929 328.818 23 340.011 23 353.818C23 367.625 34.1929 378.818 48 378.818Z" fill="#6DA544"/>
<path d="M48 338.601L68.6521 353.818L48 369.036L27.3478 353.818L48 338.601Z" fill="#FFDA44"/>
<path d="M48 362.514C52.8024 362.514 56.6956 358.621 56.6956 353.818C56.6956 349.016 52.8024 345.123 48 345.123C43.1975 345.123 39.3044 349.016 39.3044 353.818C39.3044 358.621 43.1975 362.514 48 362.514Z" fill="#F0F0F0"/>
<path d="M43.6521 353.275C42.14 353.275 40.6808 353.505 39.3071 353.931C39.368 358.681 43.2355 362.514 48 362.514C50.9461 362.514 53.548 361.047 55.121 358.806C52.4299 355.437 48.2892 353.275 43.6521 353.275V353.275Z" fill="#0052B4"/>
<path d="M56.5345 355.484C56.6392 354.945 56.6957 354.388 56.6957 353.818C56.6957 349.016 52.8025 345.123 48.0001 345.123C44.4167 345.123 41.3405 347.291 40.0093 350.386C41.186 350.142 42.4044 350.014 43.6523 350.014C48.7028 350.014 53.2718 352.113 56.5345 355.484V355.484Z" fill="#0052B4"/>
</g>
<path d="M125.516 340.724V366.318H119.592V347.404L113.756 349.109V344.609L124.971 340.724H125.516ZM146.627 340.355H147.576V345.013H147.26C146.123 345.013 145.057 345.172 144.061 345.488C143.076 345.805 142.209 346.285 141.459 346.93C140.721 347.562 140.141 348.365 139.719 349.338C139.309 350.31 139.104 351.453 139.104 352.765V357.248C139.104 358.068 139.174 358.783 139.314 359.392C139.455 360.002 139.666 360.506 139.947 360.904C140.229 361.303 140.574 361.601 140.984 361.801C141.406 362 141.893 362.099 142.443 362.099C142.9 362.099 143.322 361.994 143.709 361.783C144.096 361.572 144.43 361.273 144.711 360.887C145.004 360.5 145.227 360.049 145.379 359.533C145.531 359.017 145.607 358.455 145.607 357.846C145.607 357.189 145.525 356.597 145.361 356.07C145.197 355.543 144.963 355.097 144.658 354.734C144.365 354.359 144.008 354.078 143.586 353.89C143.176 353.691 142.725 353.592 142.232 353.592C141.482 353.592 140.844 353.762 140.316 354.101C139.801 354.43 139.408 354.851 139.139 355.367C138.881 355.883 138.752 356.404 138.752 356.931L137.328 355.49C137.305 354.787 137.439 354.06 137.732 353.31C138.025 352.56 138.465 351.863 139.051 351.219C139.637 350.574 140.369 350.053 141.248 349.654C142.127 349.256 143.146 349.056 144.307 349.056C145.479 349.056 146.51 349.279 147.4 349.724C148.303 350.17 149.059 350.791 149.668 351.588C150.289 352.385 150.758 353.316 151.074 354.383C151.391 355.449 151.549 356.603 151.549 357.846C151.549 359.099 151.326 360.265 150.881 361.344C150.447 362.41 149.832 363.342 149.035 364.138C148.238 364.935 147.295 365.556 146.205 366.002C145.115 366.447 143.914 366.67 142.602 366.67C141.254 366.67 140.006 366.441 138.857 365.984C137.721 365.515 136.725 364.842 135.869 363.963C135.025 363.072 134.363 361.988 133.883 360.711C133.414 359.433 133.18 357.986 133.18 356.369V354.207C133.18 352.015 133.537 350.064 134.252 348.353C134.979 346.642 135.963 345.195 137.205 344.012C138.459 342.816 139.895 341.908 141.512 341.287C143.129 340.666 144.834 340.355 146.627 340.355ZM154.66 363.541C154.66 362.697 154.965 361.994 155.574 361.431C156.184 360.857 156.969 360.57 157.93 360.57C158.902 360.57 159.688 360.857 160.285 361.431C160.895 361.994 161.199 362.697 161.199 363.541C161.199 364.385 160.895 365.094 160.285 365.668C159.688 366.23 158.902 366.512 157.93 366.512C156.969 366.512 156.184 366.23 155.574 365.668C154.965 365.094 154.66 364.385 154.66 363.541ZM154.66 349.513C154.66 348.67 154.965 347.967 155.574 347.404C156.184 346.83 156.969 346.543 157.93 346.543C158.902 346.543 159.688 346.83 160.285 347.404C160.895 347.967 161.199 348.67 161.199 349.513C161.199 350.357 160.895 351.066 160.285 351.64C159.688 352.203 158.902 352.484 157.93 352.484C156.969 352.484 156.184 352.203 155.574 351.64C154.965 351.066 154.66 350.357 154.66 349.513ZM182.768 351.183V355.859C182.768 357.699 182.551 359.299 182.117 360.658C181.695 362.017 181.086 363.142 180.289 364.033C179.504 364.924 178.566 365.586 177.477 366.019C176.387 366.453 175.186 366.67 173.873 366.67C172.818 366.67 171.834 366.535 170.92 366.265C170.006 365.984 169.18 365.562 168.441 365C167.715 364.426 167.088 363.711 166.561 362.855C166.033 362 165.629 360.992 165.348 359.832C165.066 358.66 164.926 357.336 164.926 355.859V351.183C164.926 349.332 165.137 347.732 165.559 346.385C165.992 345.025 166.607 343.9 167.404 343.01C168.201 342.119 169.145 341.457 170.234 341.023C171.324 340.59 172.525 340.373 173.838 340.373C174.893 340.373 175.871 340.513 176.773 340.795C177.688 341.064 178.514 341.486 179.252 342.06C179.99 342.623 180.617 343.332 181.133 344.187C181.66 345.043 182.064 346.056 182.346 347.228C182.627 348.388 182.768 349.707 182.768 351.183ZM176.844 356.58V350.428C176.844 349.607 176.797 348.892 176.703 348.283C176.621 347.674 176.492 347.158 176.316 346.736C176.152 346.314 175.947 345.974 175.701 345.717C175.455 345.447 175.174 345.254 174.857 345.137C174.553 345.008 174.213 344.943 173.838 344.943C173.369 344.943 172.947 345.043 172.572 345.242C172.209 345.43 171.898 345.734 171.641 346.156C171.383 346.578 171.184 347.14 171.043 347.844C170.914 348.547 170.85 349.408 170.85 350.428V356.58C170.85 357.412 170.891 358.138 170.973 358.76C171.066 359.369 171.195 359.89 171.359 360.324C171.535 360.746 171.746 361.092 171.992 361.361C172.238 361.619 172.52 361.806 172.836 361.924C173.152 362.041 173.498 362.099 173.873 362.099C174.33 362.099 174.74 362.006 175.104 361.818C175.467 361.631 175.777 361.326 176.035 360.904C176.305 360.471 176.504 359.902 176.633 359.199C176.773 358.484 176.844 357.611 176.844 356.58ZM203.65 351.183V355.859C203.65 357.699 203.434 359.299 203 360.658C202.578 362.017 201.969 363.142 201.172 364.033C200.387 364.924 199.449 365.586 198.359 366.019C197.27 366.453 196.068 366.67 194.756 366.67C193.701 366.67 192.717 366.535 191.803 366.265C190.889 365.984 190.062 365.562 189.324 365C188.598 364.426 187.971 363.711 187.443 362.855C186.916 362 186.512 360.992 186.23 359.832C185.949 358.66 185.809 357.336 185.809 355.859V351.183C185.809 349.332 186.02 347.732 186.441 346.385C186.875 345.025 187.49 343.9 188.287 343.01C189.084 342.119 190.027 341.457 191.117 341.023C192.207 340.59 193.408 340.373 194.721 340.373C195.775 340.373 196.754 340.513 197.656 340.795C198.57 341.064 199.396 341.486 200.135 342.06C200.873 342.623 201.5 343.332 202.016 344.187C202.543 345.043 202.947 346.056 203.229 347.228C203.51 348.388 203.65 349.707 203.65 351.183ZM197.727 356.58V350.428C197.727 349.607 197.68 348.892 197.586 348.283C197.504 347.674 197.375 347.158 197.199 346.736C197.035 346.314 196.83 345.974 196.584 345.717C196.338 345.447 196.057 345.254 195.74 345.137C195.436 345.008 195.096 344.943 194.721 344.943C194.252 344.943 193.83 345.043 193.455 345.242C193.092 345.43 192.781 345.734 192.523 346.156C192.266 346.578 192.066 347.14 191.926 347.844C191.797 348.547 191.732 349.408 191.732 350.428V356.58C191.732 357.412 191.773 358.138 191.855 358.76C191.949 359.369 192.078 359.89 192.242 360.324C192.418 360.746 192.629 361.092 192.875 361.361C193.121 361.619 193.402 361.806 193.719 361.924C194.035 362.041 194.381 362.099 194.756 362.099C195.213 362.099 195.623 362.006 195.986 361.818C196.35 361.631 196.66 361.326 196.918 360.904C197.188 360.471 197.387 359.902 197.516 359.199C197.656 358.484 197.727 357.611 197.727 356.58Z" fill="#E1E1E6"/>
<g clip-path="url(#clip6_122_136)">
<path d="M268 378.818C281.807 378.818 293 367.625 293 353.818C293 340.011 281.807 328.818 268 328.818C254.193 328.818 243 340.011 243 353.818C243 367.625 254.193 378.818 268 378.818Z" fill="#F0F0F0"/>
<path d="M268 328.818C254.193 328.818 243 340.011 243 353.818C243 356.876 243.55 359.806 244.555 362.514H291.445C292.45 359.806 293 356.876 293 353.818C293 340.011 281.807 328.818 268 328.818Z" fill="#0052B4"/>
<path d="M268 328.818C257.251 328.818 248.087 335.603 244.555 345.123H291.445C287.913 335.603 278.749 328.818 268 328.818V328.818Z" fill="#D80027"/>
<path d="M249.465 342.949V355.42C249.465 362.514 258.732 364.688 258.732 364.688C258.732 364.688 268 362.514 268 355.42V342.949H249.465Z" fill="#D80027"/>
<path d="M253.297 345.123H264.167V340.775L261.993 341.862L258.732 338.601L255.471 341.862L253.297 340.775V345.123Z" fill="#FFDA44"/>
<path d="M265.826 357.156L258.761 350.091L251.696 357.156L254.001 359.462L258.761 354.703L263.52 359.462L265.826 357.156Z" fill="#FFDA44"/>
<path d="M265.826 350.557H262.53C262.715 350.237 262.823 349.867 262.823 349.471C262.823 348.27 261.849 347.297 260.649 347.297C259.819 347.297 259.099 347.761 258.732 348.444C258.366 347.761 257.645 347.297 256.816 347.297C255.615 347.297 254.642 348.27 254.642 349.471C254.642 349.867 254.75 350.238 254.935 350.557H251.696C251.696 351.758 252.741 352.731 253.942 352.731H253.869C253.869 353.932 254.843 354.905 256.043 354.905C256.043 355.968 256.807 356.851 257.815 357.041L256.102 360.908C256.923 361.242 257.82 361.427 258.761 361.427C259.702 361.427 260.599 361.242 261.419 360.908L259.707 357.041C260.715 356.852 261.478 355.968 261.478 354.905C262.679 354.905 263.652 353.932 263.652 352.731H263.58C264.78 352.731 265.826 351.758 265.826 350.557V350.557Z" fill="#F0F0F0"/>
</g>
</g>
<path d="M0 0H316H0ZM316 404.818C316 409.236 312.418 412.818 308 412.818H8C3.58172 412.818 0 409.236 0 404.818C0 407.027 2.68629 408.818 6 408.818H310C313.314 408.818 316 407.027 316 404.818ZM0 410.818V0V410.818ZM316 0V410.818V0Z" fill="#338AF3" mask="url(#path-1-inside-1_122_136)"/>
<mask id="path-38-inside-2_122_136" fill="white">
<path d="M348 5.99999C348 2.68629 350.686 0 354 0H658C661.314 0 664 2.68629 664 6V404.818C664 408.132 661.314 410.818 658 410.818H354C350.686 410.818 348 408.132 348 404.818V5.99999Z"/>
</mask>
<path d="M348 5.99999C348 2.68629 350.686 0 354 0H658C661.314 0 664 2.68629 664 6V404.818C664 408.132 661.314 410.818 658 410.818H354C350.686 410.818 348 408.132 348 404.818V5.99999Z" fill="#202024"/>
<path d="M447.312 60.3633V63H435.641V60.75L441.16 54.832C441.715 54.2148 442.152 53.6719 442.473 53.2031C442.793 52.7266 443.023 52.3008 443.164 51.9258C443.312 51.543 443.387 51.1797 443.387 50.8359C443.387 50.3203 443.301 49.8789 443.129 49.5117C442.957 49.1367 442.703 48.8477 442.367 48.6445C442.039 48.4414 441.633 48.3398 441.148 48.3398C440.633 48.3398 440.188 48.4648 439.812 48.7148C439.445 48.9648 439.164 49.3125 438.969 49.7578C438.781 50.2031 438.688 50.707 438.688 51.2695H435.301C435.301 50.2539 435.543 49.3242 436.027 48.4805C436.512 47.6289 437.195 46.9531 438.078 46.4531C438.961 45.9453 440.008 45.6914 441.219 45.6914C442.414 45.6914 443.422 45.8867 444.242 46.2773C445.07 46.6602 445.695 47.2148 446.117 47.9414C446.547 48.6602 446.762 49.5195 446.762 50.5195C446.762 51.082 446.672 51.6328 446.492 52.1719C446.312 52.7031 446.055 53.2344 445.719 53.7656C445.391 54.2891 444.992 54.8203 444.523 55.3594C444.055 55.8984 443.535 56.457 442.965 57.0352L440 60.3633H447.312ZM460.918 58.3242C460.918 59.3945 460.668 60.2969 460.168 61.0312C459.668 61.7578 458.98 62.3086 458.105 62.6836C457.238 63.0508 456.254 63.2344 455.152 63.2344C454.051 63.2344 453.062 63.0508 452.188 62.6836C451.312 62.3086 450.621 61.7578 450.113 61.0312C449.605 60.2969 449.352 59.3945 449.352 58.3242C449.352 57.6055 449.496 56.957 449.785 56.3789C450.074 55.793 450.477 55.293 450.992 54.8789C451.516 54.457 452.129 54.1367 452.832 53.918C453.535 53.6914 454.301 53.5781 455.129 53.5781C456.238 53.5781 457.23 53.7734 458.105 54.1641C458.98 54.5547 459.668 55.1055 460.168 55.8164C460.668 56.5273 460.918 57.3633 460.918 58.3242ZM457.52 58.1016C457.52 57.5781 457.418 57.1289 457.215 56.7539C457.02 56.3711 456.742 56.0781 456.383 55.875C456.023 55.6719 455.605 55.5703 455.129 55.5703C454.652 55.5703 454.234 55.6719 453.875 55.875C453.516 56.0781 453.234 56.3711 453.031 56.7539C452.836 57.1289 452.738 57.5781 452.738 58.1016C452.738 58.6172 452.836 59.0625 453.031 59.4375C453.234 59.8125 453.516 60.1016 453.875 60.3047C454.242 60.5 454.668 60.5977 455.152 60.5977C455.637 60.5977 456.055 60.5 456.406 60.3047C456.766 60.1016 457.039 59.8125 457.227 59.4375C457.422 59.0625 457.52 58.6172 457.52 58.1016ZM460.555 50.4609C460.555 51.3281 460.324 52.0977 459.863 52.7695C459.402 53.4336 458.762 53.9531 457.941 54.3281C457.129 54.7031 456.199 54.8906 455.152 54.8906C454.098 54.8906 453.16 54.7031 452.34 54.3281C451.52 53.9531 450.879 53.4336 450.418 52.7695C449.957 52.0977 449.727 51.3281 449.727 50.4609C449.727 49.4297 449.957 48.5625 450.418 47.8594C450.887 47.1484 451.527 46.6094 452.34 46.2422C453.16 45.875 454.09 45.6914 455.129 45.6914C456.184 45.6914 457.117 45.875 457.93 46.2422C458.75 46.6094 459.391 47.1484 459.852 47.8594C460.32 48.5625 460.555 49.4297 460.555 50.4609ZM457.18 50.6133C457.18 50.1523 457.098 49.7539 456.934 49.418C456.77 49.0742 456.535 48.8086 456.23 48.6211C455.934 48.4336 455.566 48.3398 455.129 48.3398C454.707 48.3398 454.344 48.4297 454.039 48.6094C453.742 48.7891 453.512 49.0508 453.348 49.3945C453.191 49.7305 453.113 50.1367 453.113 50.6133C453.113 51.0742 453.191 51.4805 453.348 51.832C453.512 52.1758 453.746 52.4453 454.051 52.6406C454.355 52.8359 454.723 52.9336 455.152 52.9336C455.582 52.9336 455.945 52.8359 456.242 52.6406C456.547 52.4453 456.777 52.1758 456.934 51.832C457.098 51.4805 457.18 51.0742 457.18 50.6133ZM470.633 45.9375L464.375 64.4648H461.867L468.125 45.9375H470.633ZM480.336 45.9023V63H476.961V49.793L472.906 51.082V48.4219L479.973 45.9023H480.336ZM494.117 45.9023V63H490.742V49.793L486.688 51.082V48.4219L493.754 45.9023H494.117Z" fill="#F7DD43"/>
<path d="M520.57 57.3955C520.57 57.2178 520.543 57.0583 520.488 56.917C520.438 56.7712 520.342 56.639 520.201 56.5205C520.06 56.3975 519.862 56.2767 519.606 56.1582C519.351 56.0397 519.021 55.9167 518.615 55.7891C518.164 55.6432 517.736 55.4792 517.33 55.2969C516.929 55.1146 516.574 54.9027 516.264 54.6611C515.958 54.415 515.717 54.1302 515.539 53.8066C515.366 53.4831 515.279 53.1071 515.279 52.6787C515.279 52.264 515.37 51.888 515.553 51.5508C515.735 51.209 515.99 50.9173 516.318 50.6758C516.646 50.4297 517.034 50.2406 517.48 50.1084C517.932 49.9762 518.426 49.9102 518.964 49.9102C519.698 49.9102 520.338 50.0423 520.885 50.3066C521.432 50.571 521.855 50.9333 522.156 51.3936C522.462 51.8538 522.614 52.3802 522.614 52.9727H520.577C520.577 52.681 520.516 52.4258 520.393 52.207C520.274 51.9837 520.092 51.8083 519.846 51.6807C519.604 51.5531 519.299 51.4893 518.93 51.4893C518.574 51.4893 518.278 51.5439 518.041 51.6533C517.804 51.7581 517.626 51.9017 517.508 52.084C517.389 52.2617 517.33 52.4622 517.33 52.6855C517.33 52.8542 517.371 53.0068 517.453 53.1436C517.54 53.2803 517.667 53.4079 517.836 53.5264C518.005 53.6449 518.212 53.7565 518.458 53.8613C518.704 53.9661 518.989 54.0687 519.312 54.1689C519.855 54.333 520.331 54.5176 520.741 54.7227C521.156 54.9277 521.502 55.1579 521.78 55.4131C522.058 55.6683 522.268 55.9577 522.409 56.2812C522.55 56.6048 522.621 56.9717 522.621 57.3818C522.621 57.8148 522.537 58.2021 522.368 58.5439C522.2 58.8857 521.956 59.1751 521.637 59.4121C521.318 59.6491 520.937 59.8291 520.495 59.9521C520.053 60.0752 519.559 60.1367 519.012 60.1367C518.52 60.1367 518.034 60.0729 517.556 59.9453C517.077 59.8132 516.642 59.6149 516.25 59.3506C515.863 59.0863 515.553 58.749 515.32 58.3389C515.088 57.9287 514.972 57.4434 514.972 56.8828H517.029C517.029 57.1927 517.077 57.4548 517.173 57.6689C517.269 57.8831 517.403 58.0563 517.576 58.1885C517.754 58.3206 517.964 58.4163 518.205 58.4756C518.451 58.5348 518.72 58.5645 519.012 58.5645C519.367 58.5645 519.659 58.5143 519.887 58.4141C520.119 58.3138 520.29 58.1748 520.399 57.9971C520.513 57.8193 520.57 57.6188 520.57 57.3955ZM530.694 58.4004V60H525.396V58.4004H530.694ZM526.066 50.0469V60H524.016V50.0469H526.066ZM530.004 54.1006V55.6592H525.396V54.1006H530.004ZM530.688 50.0469V51.6533H525.396V50.0469H530.688ZM539.779 54.7979V58.7422C539.624 58.929 539.385 59.1318 539.062 59.3506C538.738 59.5648 538.321 59.7493 537.811 59.9043C537.3 60.0592 536.683 60.1367 535.958 60.1367C535.315 60.1367 534.73 60.0319 534.201 59.8223C533.673 59.6081 533.217 59.2959 532.834 58.8857C532.456 58.4756 532.164 57.9743 531.959 57.3818C531.754 56.7848 531.651 56.1035 531.651 55.3379V54.7158C531.651 53.9502 531.749 53.2689 531.945 52.6719C532.146 52.0749 532.431 51.5713 532.8 51.1611C533.169 50.751 533.609 50.4388 534.119 50.2246C534.63 50.0104 535.197 49.9033 535.821 49.9033C536.687 49.9033 537.398 50.0446 537.954 50.3271C538.51 50.6051 538.934 50.9925 539.226 51.4893C539.522 51.9814 539.704 52.5465 539.772 53.1846H537.783C537.733 52.8473 537.637 52.5534 537.496 52.3027C537.355 52.0521 537.152 51.8561 536.888 51.7148C536.628 51.5736 536.291 51.5029 535.876 51.5029C535.534 51.5029 535.229 51.5736 534.96 51.7148C534.696 51.8516 534.472 52.0544 534.29 52.3232C534.108 52.5921 533.969 52.9248 533.873 53.3213C533.777 53.7178 533.729 54.1781 533.729 54.7021V55.3379C533.729 55.8574 533.78 56.3177 533.88 56.7188C533.98 57.1152 534.128 57.4502 534.324 57.7236C534.525 57.9925 534.771 58.1953 535.062 58.332C535.354 58.4688 535.694 58.5371 536.081 58.5371C536.405 58.5371 536.674 58.5098 536.888 58.4551C537.106 58.4004 537.282 58.3343 537.414 58.2568C537.551 58.1748 537.656 58.0973 537.729 58.0244V56.2607H535.855V54.7979H539.779ZM546.93 50.0469H548.974V56.623C548.974 57.3887 548.81 58.0335 548.481 58.5576C548.158 59.0817 547.709 59.4759 547.135 59.7402C546.565 60.0046 545.909 60.1367 545.166 60.1367C544.423 60.1367 543.762 60.0046 543.184 59.7402C542.609 59.4759 542.158 59.0817 541.83 58.5576C541.507 58.0335 541.345 57.3887 541.345 56.623V50.0469H543.396V56.623C543.396 57.0697 543.466 57.4342 543.607 57.7168C543.749 57.9993 543.951 58.2067 544.216 58.3389C544.485 58.471 544.801 58.5371 545.166 58.5371C545.54 58.5371 545.856 58.471 546.116 58.3389C546.381 58.2067 546.581 57.9993 546.718 57.7168C546.859 57.4342 546.93 57.0697 546.93 56.623V50.0469ZM558.763 50.0469V60H556.712L552.713 53.3281V60H550.662V50.0469H552.713L556.719 56.7256V50.0469H558.763ZM563.603 60H561.436L561.449 58.4004H563.603C564.14 58.4004 564.594 58.2796 564.963 58.0381C565.332 57.792 565.61 57.4342 565.797 56.9648C565.988 56.4954 566.084 55.9281 566.084 55.2627V54.7773C566.084 54.2669 566.029 53.818 565.92 53.4307C565.815 53.0433 565.658 52.7174 565.448 52.4531C565.239 52.1888 564.981 51.9906 564.676 51.8584C564.37 51.7217 564.02 51.6533 563.623 51.6533H561.395V50.0469H563.623C564.288 50.0469 564.897 50.1608 565.448 50.3887C566.004 50.612 566.485 50.9333 566.891 51.3525C567.296 51.7718 567.608 52.2731 567.827 52.8564C568.05 53.4352 568.162 54.0801 568.162 54.791V55.2627C568.162 55.9691 568.05 56.6139 567.827 57.1973C567.608 57.7806 567.296 58.2819 566.891 58.7012C566.49 59.1159 566.009 59.4372 565.448 59.665C564.892 59.8883 564.277 60 563.603 60ZM562.598 50.0469V60H560.547V50.0469H562.598ZM573.549 51.749L570.842 60H568.661L572.359 50.0469H573.747L573.549 51.749ZM575.798 60L573.084 51.749L572.865 50.0469H574.267L577.985 60H575.798ZM575.675 56.2949V57.9014H570.418V56.2949H575.675Z" fill="#E1E1E6"/>
<rect x="418" y="32.5" width="176" height="45" rx="5.5" stroke="#338AF3"/>
<g clip-path="url(#clip7_122_136)">
<path d="M396 181C409.807 181 421 169.807 421 156C421 142.193 409.807 131 396 131C382.193 131 371 142.193 371 156C371 169.807 382.193 181 396 181Z" fill="#F0F0F0"/>
<path d="M404.696 156C404.696 158.174 400.802 163.609 396 163.609C391.198 163.609 387.304 158.174 387.304 156C387.304 151.197 391.198 147.304 396 147.304C400.802 147.304 404.696 151.197 404.696 156Z" fill="#D80027"/>
<path d="M404.696 156C404.696 160.803 400.802 164.696 396 164.696C391.198 164.696 387.304 160.803 387.304 156" fill="#0052B4"/>
<path d="M405.216 163.686L407.522 161.381L409.059 162.918L406.753 165.223L405.216 163.686Z" fill="black"/>
<path d="M401.373 167.529L403.678 165.223L405.215 166.76L402.91 169.066L401.373 167.529Z" fill="black"/>
<path d="M409.828 168.297L412.133 165.992L413.67 167.528L411.364 169.834L409.828 168.297Z" fill="black"/>
<path d="M405.984 172.14L408.29 169.835L409.827 171.372L407.521 173.677L405.984 172.14Z" fill="black"/>
<path d="M407.522 165.992L409.827 163.686L411.364 165.223L409.059 167.529L407.522 165.992Z" fill="black"/>
<path d="M403.679 169.834L405.985 167.529L407.522 169.066L405.216 171.371L403.679 169.834Z" fill="black"/>
<path d="M409.838 148.318L403.69 142.17L405.227 140.633L411.375 146.781L409.838 148.318Z" fill="black"/>
<path d="M403.689 146.782L401.383 144.476L402.92 142.939L405.226 145.245L403.689 146.782Z" fill="black"/>
<path d="M407.531 150.625L405.226 148.319L406.763 146.783L409.068 149.088L407.531 150.625Z" fill="black"/>
<path d="M408.299 142.17L405.994 139.865L407.531 138.328L409.836 140.633L408.299 142.17Z" fill="black"/>
<path d="M412.144 146.014L409.838 143.708L411.375 142.171L413.681 144.477L412.144 146.014Z" fill="black"/>
<path d="M379.863 165.987L386.011 172.135L384.474 173.672L378.326 167.524L379.863 165.987Z" fill="black"/>
<path d="M386.01 167.523L388.316 169.829L386.779 171.366L384.473 169.06L386.01 167.523Z" fill="black"/>
<path d="M382.167 163.682L384.473 165.987L382.936 167.524L380.631 165.219L382.167 163.682Z" fill="black"/>
<path d="M384.473 161.376L390.621 167.523L389.084 169.06L382.936 162.913L384.473 161.376Z" fill="black"/>
<path d="M386.01 139.86L379.862 146.008L378.325 144.471L384.473 138.323L386.01 139.86Z" fill="black"/>
<path d="M388.315 142.165L382.168 148.313L380.631 146.776L386.778 140.628L388.315 142.165Z" fill="black"/>
<path d="M390.623 144.472L384.475 150.619L382.938 149.083L389.086 142.935L390.623 144.472Z" fill="black"/>
</g>
<path d="M473.516 142.906V168.5H467.592V149.586L461.756 151.291V146.791L472.971 142.906H473.516ZM499.057 153.365V158.041C499.057 159.881 498.84 161.48 498.406 162.84C497.984 164.199 497.375 165.324 496.578 166.215C495.793 167.105 494.855 167.768 493.766 168.201C492.676 168.635 491.475 168.852 490.162 168.852C489.107 168.852 488.123 168.717 487.209 168.447C486.295 168.166 485.469 167.744 484.73 167.182C484.004 166.607 483.377 165.893 482.85 165.037C482.322 164.182 481.918 163.174 481.637 162.014C481.355 160.842 481.215 159.518 481.215 158.041V153.365C481.215 151.514 481.426 149.914 481.848 148.566C482.281 147.207 482.896 146.082 483.693 145.191C484.49 144.301 485.434 143.639 486.523 143.205C487.613 142.771 488.814 142.555 490.127 142.555C491.182 142.555 492.16 142.695 493.062 142.977C493.977 143.246 494.803 143.668 495.541 144.242C496.279 144.805 496.906 145.514 497.422 146.369C497.949 147.225 498.354 148.238 498.635 149.41C498.916 150.57 499.057 151.889 499.057 153.365ZM493.133 158.762V152.609C493.133 151.789 493.086 151.074 492.992 150.465C492.91 149.855 492.781 149.34 492.605 148.918C492.441 148.496 492.236 148.156 491.99 147.898C491.744 147.629 491.463 147.436 491.146 147.318C490.842 147.189 490.502 147.125 490.127 147.125C489.658 147.125 489.236 147.225 488.861 147.424C488.498 147.611 488.188 147.916 487.93 148.338C487.672 148.76 487.473 149.322 487.332 150.025C487.203 150.729 487.139 151.59 487.139 152.609V158.762C487.139 159.594 487.18 160.32 487.262 160.941C487.355 161.551 487.484 162.072 487.648 162.506C487.824 162.928 488.035 163.273 488.281 163.543C488.527 163.801 488.809 163.988 489.125 164.105C489.441 164.223 489.787 164.281 490.162 164.281C490.619 164.281 491.029 164.188 491.393 164C491.756 163.812 492.066 163.508 492.324 163.086C492.594 162.652 492.793 162.084 492.922 161.381C493.062 160.666 493.133 159.793 493.133 158.762ZM502.66 165.723C502.66 164.879 502.965 164.176 503.574 163.613C504.184 163.039 504.969 162.752 505.93 162.752C506.902 162.752 507.688 163.039 508.285 163.613C508.895 164.176 509.199 164.879 509.199 165.723C509.199 166.566 508.895 167.275 508.285 167.85C507.688 168.412 506.902 168.693 505.93 168.693C504.969 168.693 504.184 168.412 503.574 167.85C502.965 167.275 502.66 166.566 502.66 165.723ZM502.66 151.695C502.66 150.852 502.965 150.148 503.574 149.586C504.184 149.012 504.969 148.725 505.93 148.725C506.902 148.725 507.688 149.012 508.285 149.586C508.895 150.148 509.199 150.852 509.199 151.695C509.199 152.539 508.895 153.248 508.285 153.822C507.688 154.385 506.902 154.666 505.93 154.666C504.969 154.666 504.184 154.385 503.574 153.822C502.965 153.248 502.66 152.539 502.66 151.695ZM530.768 153.365V158.041C530.768 159.881 530.551 161.48 530.117 162.84C529.695 164.199 529.086 165.324 528.289 166.215C527.504 167.105 526.566 167.768 525.477 168.201C524.387 168.635 523.186 168.852 521.873 168.852C520.818 168.852 519.834 168.717 518.92 168.447C518.006 168.166 517.18 167.744 516.441 167.182C515.715 166.607 515.088 165.893 514.561 165.037C514.033 164.182 513.629 163.174 513.348 162.014C513.066 160.842 512.926 159.518 512.926 158.041V153.365C512.926 151.514 513.137 149.914 513.559 148.566C513.992 147.207 514.607 146.082 515.404 145.191C516.201 144.301 517.145 143.639 518.234 143.205C519.324 142.771 520.525 142.555 521.838 142.555C522.893 142.555 523.871 142.695 524.773 142.977C525.688 143.246 526.514 143.668 527.252 144.242C527.99 144.805 528.617 145.514 529.133 146.369C529.66 147.225 530.064 148.238 530.346 149.41C530.627 150.57 530.768 151.889 530.768 153.365ZM524.844 158.762V152.609C524.844 151.789 524.797 151.074 524.703 150.465C524.621 149.855 524.492 149.34 524.316 148.918C524.152 148.496 523.947 148.156 523.701 147.898C523.455 147.629 523.174 147.436 522.857 147.318C522.553 147.189 522.213 147.125 521.838 147.125C521.369 147.125 520.947 147.225 520.572 147.424C520.209 147.611 519.898 147.916 519.641 148.338C519.383 148.76 519.184 149.322 519.043 150.025C518.914 150.729 518.85 151.59 518.85 152.609V158.762C518.85 159.594 518.891 160.32 518.973 160.941C519.066 161.551 519.195 162.072 519.359 162.506C519.535 162.928 519.746 163.273 519.992 163.543C520.238 163.801 520.52 163.988 520.836 164.105C521.152 164.223 521.498 164.281 521.873 164.281C522.33 164.281 522.74 164.188 523.104 164C523.467 163.812 523.777 163.508 524.035 163.086C524.305 162.652 524.504 162.084 524.633 161.381C524.773 160.666 524.844 159.793 524.844 158.762ZM551.65 153.365V158.041C551.65 159.881 551.434 161.48 551 162.84C550.578 164.199 549.969 165.324 549.172 166.215C548.387 167.105 547.449 167.768 546.359 168.201C545.27 168.635 544.068 168.852 542.756 168.852C541.701 168.852 540.717 168.717 539.803 168.447C538.889 168.166 538.062 167.744 537.324 167.182C536.598 166.607 535.971 165.893 535.443 165.037C534.916 164.182 534.512 163.174 534.23 162.014C533.949 160.842 533.809 159.518 533.809 158.041V153.365C533.809 151.514 534.02 149.914 534.441 148.566C534.875 147.207 535.49 146.082 536.287 145.191C537.084 144.301 538.027 143.639 539.117 143.205C540.207 142.771 541.408 142.555 542.721 142.555C543.775 142.555 544.754 142.695 545.656 142.977C546.57 143.246 547.396 143.668 548.135 144.242C548.873 144.805 549.5 145.514 550.016 146.369C550.543 147.225 550.947 148.238 551.229 149.41C551.51 150.57 551.65 151.889 551.65 153.365ZM545.727 158.762V152.609C545.727 151.789 545.68 151.074 545.586 150.465C545.504 149.855 545.375 149.34 545.199 148.918C545.035 148.496 544.83 148.156 544.584 147.898C544.338 147.629 544.057 147.436 543.74 147.318C543.436 147.189 543.096 147.125 542.721 147.125C542.252 147.125 541.83 147.225 541.455 147.424C541.092 147.611 540.781 147.916 540.523 148.338C540.266 148.76 540.066 149.322 539.926 150.025C539.797 150.729 539.732 151.59 539.732 152.609V158.762C539.732 159.594 539.773 160.32 539.855 160.941C539.949 161.551 540.078 162.072 540.242 162.506C540.418 162.928 540.629 163.273 540.875 163.543C541.121 163.801 541.402 163.988 541.719 164.105C542.035 164.223 542.381 164.281 542.756 164.281C543.213 164.281 543.623 164.188 543.986 164C544.35 163.812 544.66 163.508 544.918 163.086C545.188 162.652 545.387 162.084 545.516 161.381C545.656 160.666 545.727 159.793 545.727 158.762Z" fill="#E1E1E6"/>
<g clip-path="url(#clip8_122_136)">
<path d="M591 156C591 159.058 591.55 161.987 592.555 164.696L616 165.783L639.445 164.696C640.45 161.987 641 159.058 641 156C641 152.942 640.45 150.013 639.445 147.304L616 146.217L592.555 147.304C591.55 150.013 591 152.942 591 156V156Z" fill="#FFDA44"/>
<path d="M616 131C605.251 131 596.087 137.784 592.555 147.304H639.445C635.913 137.784 626.749 131 616 131V131Z" fill="#D80027"/>
<path d="M639.445 164.696H592.555C596.087 174.216 605.251 181 616 181C626.749 181 635.913 174.216 639.445 164.696Z" fill="#496E2D"/>
<path d="M616 147.304L618.158 153.947H625.143L619.492 158.053L621.651 164.696L616 160.59L610.349 164.696L612.507 158.053L606.857 153.947H613.842L616 147.304Z" fill="black"/>
</g>
<line x1="371.002" y1="204.5" x2="641.001" y2="205.409" stroke="#323238"/>
<g clip-path="url(#clip9_122_136)">
<path d="M396 279.909C409.807 279.909 421 268.716 421 254.909C421 241.102 409.807 229.909 396 229.909C382.193 229.909 371 241.102 371 254.909C371 268.716 382.193 279.909 396 279.909Z" fill="#6DA544"/>
<path d="M396 239.692L416.652 254.909L396 270.126L375.348 254.909L396 239.692Z" fill="#FFDA44"/>
<path d="M396 263.605C400.802 263.605 404.696 259.711 404.696 254.909C404.696 250.107 400.802 246.213 396 246.213C391.198 246.213 387.304 250.107 387.304 254.909C387.304 259.711 391.198 263.605 396 263.605Z" fill="#F0F0F0"/>
<path d="M391.652 254.366C390.14 254.366 388.681 254.596 387.307 255.022C387.368 259.772 391.236 263.605 396 263.605C398.946 263.605 401.548 262.138 403.121 259.897C400.43 256.528 396.289 254.366 391.652 254.366V254.366Z" fill="#0052B4"/>
<path d="M404.534 256.575C404.639 256.036 404.696 255.479 404.696 254.909C404.696 250.107 400.803 246.213 396 246.213C392.417 246.213 389.341 248.382 388.009 251.477C389.186 251.233 390.404 251.105 391.652 251.105C396.703 251.105 401.272 253.204 404.534 256.575V256.575Z" fill="#0052B4"/>
</g>
<path d="M473.516 241.815V267.409H467.592V248.495L461.756 250.2V245.7L472.971 241.815H473.516ZM486.682 252.134H489.564C490.303 252.134 490.906 252.005 491.375 251.747C491.855 251.477 492.213 251.102 492.447 250.622C492.682 250.13 492.799 249.55 492.799 248.882C492.799 248.366 492.688 247.891 492.465 247.458C492.254 247.024 491.926 246.679 491.48 246.421C491.035 246.151 490.467 246.016 489.775 246.016C489.307 246.016 488.85 246.116 488.404 246.315C487.959 246.503 487.59 246.772 487.297 247.124C487.016 247.475 486.875 247.903 486.875 248.407H480.934C480.934 246.954 481.332 245.712 482.129 244.681C482.938 243.638 483.998 242.841 485.311 242.29C486.635 241.727 488.059 241.446 489.582 241.446C491.398 241.446 492.992 241.727 494.363 242.29C495.734 242.841 496.801 243.661 497.562 244.751C498.336 245.829 498.723 247.165 498.723 248.759C498.723 249.638 498.518 250.464 498.107 251.237C497.697 252.011 497.123 252.69 496.385 253.276C495.646 253.862 494.779 254.325 493.783 254.665C492.799 254.993 491.721 255.157 490.549 255.157H486.682V252.134ZM486.682 256.546V253.593H490.549C491.826 253.593 492.992 253.739 494.047 254.032C495.102 254.313 496.01 254.735 496.771 255.298C497.533 255.86 498.119 256.557 498.529 257.39C498.939 258.21 499.145 259.153 499.145 260.22C499.145 261.415 498.904 262.481 498.424 263.419C497.943 264.356 497.27 265.147 496.402 265.792C495.535 266.436 494.521 266.929 493.361 267.268C492.201 267.597 490.941 267.761 489.582 267.761C488.516 267.761 487.449 267.62 486.383 267.339C485.316 267.046 484.344 266.6 483.465 266.003C482.586 265.393 481.877 264.62 481.338 263.682C480.811 262.733 480.547 261.602 480.547 260.29H486.488C486.488 260.829 486.635 261.321 486.928 261.766C487.232 262.2 487.637 262.546 488.141 262.804C488.645 263.061 489.189 263.19 489.775 263.19C490.502 263.19 491.117 263.056 491.621 262.786C492.137 262.505 492.529 262.13 492.799 261.661C493.068 261.192 493.203 260.671 493.203 260.097C493.203 259.229 493.057 258.538 492.764 258.022C492.482 257.507 492.066 257.132 491.516 256.897C490.977 256.663 490.326 256.546 489.564 256.546H486.682ZM502.66 264.632C502.66 263.788 502.965 263.085 503.574 262.522C504.184 261.948 504.969 261.661 505.93 261.661C506.902 261.661 507.688 261.948 508.285 262.522C508.895 263.085 509.199 263.788 509.199 264.632C509.199 265.475 508.895 266.184 508.285 266.759C507.688 267.321 506.902 267.602 505.93 267.602C504.969 267.602 504.184 267.321 503.574 266.759C502.965 266.184 502.66 265.475 502.66 264.632ZM502.66 250.604C502.66 249.761 502.965 249.057 503.574 248.495C504.184 247.921 504.969 247.634 505.93 247.634C506.902 247.634 507.688 247.921 508.285 248.495C508.895 249.057 509.199 249.761 509.199 250.604C509.199 251.448 508.895 252.157 508.285 252.731C507.688 253.294 506.902 253.575 505.93 253.575C504.969 253.575 504.184 253.294 503.574 252.731C502.965 252.157 502.66 251.448 502.66 250.604ZM530.768 252.274V256.95C530.768 258.79 530.551 260.39 530.117 261.749C529.695 263.108 529.086 264.233 528.289 265.124C527.504 266.015 526.566 266.677 525.477 267.11C524.387 267.544 523.186 267.761 521.873 267.761C520.818 267.761 519.834 267.626 518.92 267.356C518.006 267.075 517.18 266.653 516.441 266.091C515.715 265.516 515.088 264.802 514.561 263.946C514.033 263.091 513.629 262.083 513.348 260.923C513.066 259.751 512.926 258.427 512.926 256.95V252.274C512.926 250.423 513.137 248.823 513.559 247.475C513.992 246.116 514.607 244.991 515.404 244.1C516.201 243.21 517.145 242.548 518.234 242.114C519.324 241.681 520.525 241.464 521.838 241.464C522.893 241.464 523.871 241.604 524.773 241.886C525.688 242.155 526.514 242.577 527.252 243.151C527.99 243.714 528.617 244.423 529.133 245.278C529.66 246.134 530.064 247.147 530.346 248.319C530.627 249.479 530.768 250.798 530.768 252.274ZM524.844 257.671V251.518C524.844 250.698 524.797 249.983 524.703 249.374C524.621 248.765 524.492 248.249 524.316 247.827C524.152 247.405 523.947 247.065 523.701 246.807C523.455 246.538 523.174 246.345 522.857 246.227C522.553 246.099 522.213 246.034 521.838 246.034C521.369 246.034 520.947 246.134 520.572 246.333C520.209 246.52 519.898 246.825 519.641 247.247C519.383 247.669 519.184 248.231 519.043 248.934C518.914 249.638 518.85 250.499 518.85 251.518V257.671C518.85 258.503 518.891 259.229 518.973 259.85C519.066 260.46 519.195 260.981 519.359 261.415C519.535 261.837 519.746 262.182 519.992 262.452C520.238 262.71 520.52 262.897 520.836 263.015C521.152 263.132 521.498 263.19 521.873 263.19C522.33 263.19 522.74 263.097 523.104 262.909C523.467 262.722 523.777 262.417 524.035 261.995C524.305 261.561 524.504 260.993 524.633 260.29C524.773 259.575 524.844 258.702 524.844 257.671ZM551.65 252.274V256.95C551.65 258.79 551.434 260.39 551 261.749C550.578 263.108 549.969 264.233 549.172 265.124C548.387 266.015 547.449 266.677 546.359 267.11C545.27 267.544 544.068 267.761 542.756 267.761C541.701 267.761 540.717 267.626 539.803 267.356C538.889 267.075 538.062 266.653 537.324 266.091C536.598 265.516 535.971 264.802 535.443 263.946C534.916 263.091 534.512 262.083 534.23 260.923C533.949 259.751 533.809 258.427 533.809 256.95V252.274C533.809 250.423 534.02 248.823 534.441 247.475C534.875 246.116 535.49 244.991 536.287 244.1C537.084 243.21 538.027 242.548 539.117 242.114C540.207 241.681 541.408 241.464 542.721 241.464C543.775 241.464 544.754 241.604 545.656 241.886C546.57 242.155 547.396 242.577 548.135 243.151C548.873 243.714 549.5 244.423 550.016 245.278C550.543 246.134 550.947 247.147 551.229 248.319C551.51 249.479 551.65 250.798 551.65 252.274ZM545.727 257.671V251.518C545.727 250.698 545.68 249.983 545.586 249.374C545.504 248.765 545.375 248.249 545.199 247.827C545.035 247.405 544.83 247.065 544.584 246.807C544.338 246.538 544.057 246.345 543.74 246.227C543.436 246.099 543.096 246.034 542.721 246.034C542.252 246.034 541.83 246.134 541.455 246.333C541.092 246.52 540.781 246.825 540.523 247.247C540.266 247.669 540.066 248.231 539.926 248.934C539.797 249.638 539.732 250.499 539.732 251.518V257.671C539.732 258.503 539.773 259.229 539.855 259.85C539.949 260.46 540.078 260.981 540.242 261.415C540.418 261.837 540.629 262.182 540.875 262.452C541.121 262.71 541.402 262.897 541.719 263.015C542.035 263.132 542.381 263.19 542.756 263.19C543.213 263.19 543.623 263.097 543.986 262.909C544.35 262.722 544.66 262.417 544.918 261.995C545.188 261.561 545.387 260.993 545.516 260.29C545.656 259.575 545.727 258.702 545.727 257.671Z" fill="#E1E1E6"/>
<g clip-path="url(#clip10_122_136)">
<path d="M616 279.909C629.807 279.909 641 268.716 641 254.909C641 241.102 629.807 229.909 616 229.909C602.193 229.909 591 241.102 591 254.909C591 268.716 602.193 279.909 616 279.909Z" fill="#D80027"/>
<path d="M629.043 250.561H620.348V241.866H611.652V250.561H602.957V259.257H611.652V267.953H620.348V259.257H629.043V250.561Z" fill="#F0F0F0"/>
</g>
<line x1="371.002" y1="303.409" x2="641.001" y2="304.318" stroke="#323238"/>
<g clip-path="url(#clip11_122_136)">
<path d="M371 353.818C371 364.567 377.784 373.731 387.304 377.263L389.478 353.818L387.304 330.373C377.784 333.906 371 343.069 371 353.818Z" fill="#6DA544"/>
<path d="M421 353.818C421 340.011 409.807 328.818 396 328.818C392.942 328.818 390.013 329.368 387.304 330.373V377.263C390.013 378.268 392.942 378.818 396 378.818C409.807 378.818 421 367.625 421 353.818Z" fill="#D80027"/>
<path d="M387.304 362.514C392.107 362.514 396 358.621 396 353.818C396 349.016 392.107 345.123 387.304 345.123C382.502 345.123 378.609 349.016 378.609 353.818C378.609 358.621 382.502 362.514 387.304 362.514Z" fill="#FFDA44"/>
<path d="M382.413 349.47V354.905C382.413 357.606 384.603 359.796 387.304 359.796C390.006 359.796 392.196 357.607 392.196 354.905V349.47H382.413Z" fill="#D80027"/>
<path d="M387.304 356.536C386.405 356.536 385.674 355.804 385.674 354.905V352.731H388.935V354.905C388.935 355.804 388.203 356.536 387.304 356.536Z" fill="#F0F0F0"/>
</g>
<path d="M473.516 340.724V366.318H467.592V347.404L461.756 349.109V344.609L472.971 340.724H473.516ZM494.627 340.355H495.576V345.013H495.26C494.123 345.013 493.057 345.172 492.061 345.488C491.076 345.805 490.209 346.285 489.459 346.93C488.721 347.562 488.141 348.365 487.719 349.338C487.309 350.31 487.104 351.453 487.104 352.765V357.248C487.104 358.068 487.174 358.783 487.314 359.392C487.455 360.002 487.666 360.506 487.947 360.904C488.229 361.303 488.574 361.601 488.984 361.801C489.406 362 489.893 362.099 490.443 362.099C490.9 362.099 491.322 361.994 491.709 361.783C492.096 361.572 492.43 361.273 492.711 360.887C493.004 360.5 493.227 360.049 493.379 359.533C493.531 359.017 493.607 358.455 493.607 357.846C493.607 357.189 493.525 356.597 493.361 356.07C493.197 355.543 492.963 355.097 492.658 354.734C492.365 354.359 492.008 354.078 491.586 353.89C491.176 353.691 490.725 353.592 490.232 353.592C489.482 353.592 488.844 353.762 488.316 354.101C487.801 354.43 487.408 354.851 487.139 355.367C486.881 355.883 486.752 356.404 486.752 356.931L485.328 355.49C485.305 354.787 485.439 354.06 485.732 353.31C486.025 352.56 486.465 351.863 487.051 351.219C487.637 350.574 488.369 350.053 489.248 349.654C490.127 349.256 491.146 349.056 492.307 349.056C493.479 349.056 494.51 349.279 495.4 349.724C496.303 350.17 497.059 350.791 497.668 351.588C498.289 352.385 498.758 353.316 499.074 354.383C499.391 355.449 499.549 356.603 499.549 357.846C499.549 359.099 499.326 360.265 498.881 361.344C498.447 362.41 497.832 363.342 497.035 364.138C496.238 364.935 495.295 365.556 494.205 366.002C493.115 366.447 491.914 366.67 490.602 366.67C489.254 366.67 488.006 366.441 486.857 365.984C485.721 365.515 484.725 364.842 483.869 363.963C483.025 363.072 482.363 361.988 481.883 360.711C481.414 359.433 481.18 357.986 481.18 356.369V354.207C481.18 352.015 481.537 350.064 482.252 348.353C482.979 346.642 483.963 345.195 485.205 344.012C486.459 342.816 487.895 341.908 489.512 341.287C491.129 340.666 492.834 340.355 494.627 340.355ZM502.66 363.541C502.66 362.697 502.965 361.994 503.574 361.431C504.184 360.857 504.969 360.57 505.93 360.57C506.902 360.57 507.688 360.857 508.285 361.431C508.895 361.994 509.199 362.697 509.199 363.541C509.199 364.385 508.895 365.094 508.285 365.668C507.688 366.23 506.902 366.512 505.93 366.512C504.969 366.512 504.184 366.23 503.574 365.668C502.965 365.094 502.66 364.385 502.66 363.541ZM502.66 349.513C502.66 348.67 502.965 347.967 503.574 347.404C504.184 346.83 504.969 346.543 505.93 346.543C506.902 346.543 507.688 346.83 508.285 347.404C508.895 347.967 509.199 348.67 509.199 349.513C509.199 350.357 508.895 351.066 508.285 351.64C507.688 352.203 506.902 352.484 505.93 352.484C504.969 352.484 504.184 352.203 503.574 351.64C502.965 351.066 502.66 350.357 502.66 349.513ZM530.768 351.183V355.859C530.768 357.699 530.551 359.299 530.117 360.658C529.695 362.017 529.086 363.142 528.289 364.033C527.504 364.924 526.566 365.586 525.477 366.019C524.387 366.453 523.186 366.67 521.873 366.67C520.818 366.67 519.834 366.535 518.92 366.265C518.006 365.984 517.18 365.562 516.441 365C515.715 364.426 515.088 363.711 514.561 362.855C514.033 362 513.629 360.992 513.348 359.832C513.066 358.66 512.926 357.336 512.926 355.859V351.183C512.926 349.332 513.137 347.732 513.559 346.385C513.992 345.025 514.607 343.9 515.404 343.01C516.201 342.119 517.145 341.457 518.234 341.023C519.324 340.59 520.525 340.373 521.838 340.373C522.893 340.373 523.871 340.513 524.773 340.795C525.688 341.064 526.514 341.486 527.252 342.06C527.99 342.623 528.617 343.332 529.133 344.187C529.66 345.043 530.064 346.056 530.346 347.228C530.627 348.388 530.768 349.707 530.768 351.183ZM524.844 356.58V350.428C524.844 349.607 524.797 348.892 524.703 348.283C524.621 347.674 524.492 347.158 524.316 346.736C524.152 346.314 523.947 345.974 523.701 345.717C523.455 345.447 523.174 345.254 522.857 345.137C522.553 345.008 522.213 344.943 521.838 344.943C521.369 344.943 520.947 345.043 520.572 345.242C520.209 345.43 519.898 345.734 519.641 346.156C519.383 346.578 519.184 347.14 519.043 347.844C518.914 348.547 518.85 349.408 518.85 350.428V356.58C518.85 357.412 518.891 358.138 518.973 358.76C519.066 359.369 519.195 359.89 519.359 360.324C519.535 360.746 519.746 361.092 519.992 361.361C520.238 361.619 520.52 361.806 520.836 361.924C521.152 362.041 521.498 362.099 521.873 362.099C522.33 362.099 522.74 362.006 523.104 361.818C523.467 361.631 523.777 361.326 524.035 360.904C524.305 360.471 524.504 359.902 524.633 359.199C524.773 358.484 524.844 357.611 524.844 356.58ZM551.65 351.183V355.859C551.65 357.699 551.434 359.299 551 360.658C550.578 362.017 549.969 363.142 549.172 364.033C548.387 364.924 547.449 365.586 546.359 366.019C545.27 366.453 544.068 366.67 542.756 366.67C541.701 366.67 540.717 366.535 539.803 366.265C538.889 365.984 538.062 365.562 537.324 365C536.598 364.426 535.971 363.711 535.443 362.855C534.916 362 534.512 360.992 534.23 359.832C533.949 358.66 533.809 357.336 533.809 355.859V351.183C533.809 349.332 534.02 347.732 534.441 346.385C534.875 345.025 535.49 343.9 536.287 343.01C537.084 342.119 538.027 341.457 539.117 341.023C540.207 340.59 541.408 340.373 542.721 340.373C543.775 340.373 544.754 340.513 545.656 340.795C546.57 341.064 547.396 341.486 548.135 342.06C548.873 342.623 549.5 343.332 550.016 344.187C550.543 345.043 550.947 346.056 551.229 347.228C551.51 348.388 551.65 349.707 551.65 351.183ZM545.727 356.58V350.428C545.727 349.607 545.68 348.892 545.586 348.283C545.504 347.674 545.375 347.158 545.199 346.736C545.035 346.314 544.83 345.974 544.584 345.717C544.338 345.447 544.057 345.254 543.74 345.137C543.436 345.008 543.096 344.943 542.721 344.943C542.252 344.943 541.83 345.043 541.455 345.242C541.092 345.43 540.781 345.734 540.523 346.156C540.266 346.578 540.066 347.14 539.926 347.844C539.797 348.547 539.732 349.408 539.732 350.428V356.58C539.732 357.412 539.773 358.138 539.855 358.76C539.949 359.369 540.078 359.89 540.242 360.324C540.418 360.746 540.629 361.092 540.875 361.361C541.121 361.619 541.402 361.806 541.719 361.924C542.035 362.041 542.381 362.099 542.756 362.099C543.213 362.099 543.623 362.006 543.986 361.818C544.35 361.631 544.66 361.326 544.918 360.904C545.188 360.471 545.387 359.902 545.516 359.199C545.656 358.484 545.727 357.611 545.727 356.58Z" fill="#E1E1E6"/>
<g clip-path="url(#clip12_122_136)">
<path d="M616 378.818C629.807 378.818 641 367.625 641 353.818C641 340.011 629.807 328.818 616 328.818C602.193 328.818 591 340.011 591 353.818C591 367.625 602.193 378.818 616 378.818Z" fill="#F0F0F0"/>
<path d="M616 347.296H640.139C639.512 344.971 638.559 342.779 637.331 340.775H616V347.296Z" fill="#338AF3"/>
<path d="M600.438 373.383H631.562C633.844 371.566 635.8 369.359 637.331 366.862H594.669C596.2 369.359 598.156 371.566 600.438 373.383V373.383Z" fill="#338AF3"/>
<path d="M616 328.818V334.253H631.562C627.292 330.852 621.884 328.818 616 328.818V328.818Z" fill="#338AF3"/>
<path d="M616 347.296H640.139C639.512 344.971 638.559 342.779 637.331 340.775H616V347.296Z" fill="#338AF3"/>
<path d="M591 353.818C591 356.075 591.301 358.26 591.861 360.34H640.139C640.699 358.26 641 356.075 641 353.818H591Z" fill="#338AF3"/>
<path d="M612.739 343.449L609.686 344.885L611.312 347.842L607.996 347.208L607.576 350.557L605.267 348.094L602.958 350.557L602.538 347.208L599.222 347.842L600.848 344.885L597.795 343.449L600.848 342.013L599.222 339.056L602.537 339.69L602.958 336.341L605.267 338.804L607.576 336.341L607.996 339.69L611.312 339.056L609.686 342.013L612.739 343.449Z" fill="#FFDA44"/>
</g>
<path d="M348 0H664H348ZM664 404.818C664 409.236 660.418 412.818 656 412.818H356C351.582 412.818 348 409.236 348 404.818C348 407.027 350.686 408.818 354 408.818H658C661.314 408.818 664 407.027 664 404.818ZM348 410.818V0V410.818ZM664 0V410.818V0Z" fill="#338AF3" mask="url(#path-38-inside-2_122_136)"/>
<defs>
<clipPath id="clip0_122_136">
<rect width="50" height="50" fill="white" transform="translate(23 131)"/>
</clipPath>
<clipPath id="clip1_122_136">
<rect width="50" height="50" fill="white" transform="translate(243 131)"/>
</clipPath>
<clipPath id="clip2_122_136">
<rect width="50" height="50" fill="white" transform="translate(23 229.909)"/>
</clipPath>
<clipPath id="clip3_122_136">
<rect width="50" height="50" fill="white" transform="translate(243 229.909)"/>
</clipPath>
<clipPath id="clip4_122_136">
<rect width="270" height="50" fill="white" transform="translate(23 328.818)"/>
</clipPath>
<clipPath id="clip5_122_136">
<rect width="50" height="50" fill="white" transform="translate(23 328.818)"/>
</clipPath>
<clipPath id="clip6_122_136">
<rect width="50" height="50" fill="white" transform="translate(243 328.818)"/>
</clipPath>
<clipPath id="clip7_122_136">
<rect width="50" height="50" fill="white" transform="translate(371 131)"/>
</clipPath>
<clipPath id="clip8_122_136">
<rect width="50" height="50" fill="white" transform="translate(591 131)"/>
</clipPath>
<clipPath id="clip9_122_136">
<rect width="50" height="50" fill="white" transform="translate(371 229.909)"/>
</clipPath>
<clipPath id="clip10_122_136">
<rect width="50" height="50" fill="white" transform="translate(591 229.909)"/>
</clipPath>
<clipPath id="clip11_122_136">
<rect width="50" height="50" fill="white" transform="translate(371 328.818)"/>
</clipPath>
<clipPath id="clip12_122_136">
<rect width="50" height="50" fill="white" transform="translate(591 328.818)"/>
</clipPath>
</defs>
</svg>